# xmcd
#
# Track frame offsets: 
#        150
#        17995
#        42686
#        61236
#        78264
#        93907
#        108678
#        130806
#        146847
#        166867
#
# Disc length: 2635 seconds
#
# Revision: 0
# Processed by: cddbd v1.5.2PL0 Copyright (c) Steve Scherf et al.
# Submitted via: ExactAudioCopy v1.0b1
#
DISCID=870a490a
DTITLE=Stargazery - Eye on the sky
DYEAR=2011
DGENRE=Heavy Metal
TTITLE0=Dying
TTITLE1=Everytime I dream of you
TTITLE2=Eye on the sky
TTITLE3=How many miles
TTITLE4=I am the night
TTITLE5=Jester of kings
TTITLE6=Judah (the lion)
TTITLE7=Puppet on a string
TTITLE8=S.O.S
TTITLE9=Headless cross
EXTD=
EXTT0=
EXTT1=
EXTT2=
EXTT3=
EXTT4=
EXTT5=
EXTT6=
EXTT7=
EXTT8=
EXTT9=
PLAYORDER=
